<?xml version="1.0" standalone="no"?>
<!DOCTYPE svg PUBLIC "-//W3C//DTD SVG 20010904//EN"
 "http://www.w3.org/TR/2001/REC-SVG-20010904/DTD/svg10.dtd">
<svg version="1.0" xmlns="http://www.w3.org/2000/svg"
 width="350.000000pt" height="350.000000pt" viewBox="0 0 350.000000 350.000000"
 preserveAspectRatio="xMidYMid meet">

<g transform="translate(0.000000,350.000000) scale(0.100000,-0.100000)"
fill="#000000" stroke="none">
<path d="M436 1808 c-11 -164 -15 -333 -7 -308 4 14 11 102 15 195 4 94 10
173 14 177 8 7 310 -6 318 -15 3 -3 -2 -85 -11 -183 -9 -99 -18 -207 -21 -241
l-5 -62 -37 -4 -37 -4 41 -1 41 -2 11 73 c18 120 37 426 26 436 -5 5 -84 12
-176 15 l-166 7 -6 -83z"/>
<path d="M515 1790 c0 -52 20 -52 22 0 0 25 -3 40 -11 40 -7 0 -11 -16 -11
-40z"/>
<path d="M647 1824 c-4 -4 -7 -19 -7 -33 l-1 -26 -15 28 c-17 31 -29 34 -38
11 -12 -30 -6 -39 29 -41 25 -1 35 3 35 13 0 8 10 14 25 14 16 0 25 -6 25 -15
0 -8 4 -15 9 -15 5 0 7 10 4 23 -10 46 -13 50 -26 38 -9 -7 -17 -7 -23 -1 -6
6 -13 7 -17 4z"/>
<path d="M588 1713 c6 -2 12 -9 12 -15 0 -6 -6 -8 -14 -5 -13 5 -26 -12 -26
-35 0 -7 5 -6 14 1 7 6 21 9 30 5 17 -7 19 -1 10 34 -4 12 -14 22 -23 21 -10
0 -11 -2 -3 -6z"/>
<path d="M550 1590 c0 -16 2 -30 4 -30 2 0 9 14 15 30 8 24 7 30 -5 30 -9 0
-14 -10 -14 -30z"/>
<path d="M605 1610 c4 -6 11 -8 16 -5 14 9 11 15 -7 15 -8 0 -12 -5 -9 -10z"/>
<path d="M471 1588 c-1 -21 4 -28 17 -28 11 0 13 3 6 8 -7 4 -14 16 -17 27 -4
15 -5 14 -6 -7z"/>
<path d="M641 1588 c-1 -21 4 -28 17 -28 11 0 13 3 6 8 -7 4 -14 16 -17 27 -4
15 -5 14 -6 -7z"/>
<path d="M522 1580 c0 -14 2 -19 5 -12 2 6 2 18 0 25 -3 6 -5 1 -5 -13z"/>
<path d="M525 1520 c-3 -5 1 -10 10 -10 9 0 13 -5 10 -10 -4 -6 -11 -8 -16 -5
-5 4 -9 -3 -9 -15 0 -19 1 -20 16 -6 8 9 22 16 29 16 20 0 30 -21 14 -31 -11
-7 -10 -9 4 -9 20 0 24 36 5 43 -10 4 -9 8 2 17 12 10 11 11 -9 6 -14 -3 -30
-1 -37 5 -8 7 -14 7 -19 -1z"/>
<path d="M619 1500 c-1 -11 -2 -25 -3 -32 -1 -6 4 -13 10 -15 7 -2 10 6 6 23
-3 16 1 29 9 35 11 7 10 9 -3 9 -11 0 -19 -8 -19 -20z"/>
<path d="M684 1504 c3 -9 6 -25 7 -37 0 -21 1 -21 9 -2 14 32 11 55 -6 55 -11
0 -14 -5 -10 -16z"/>
<path d="M490 1474 c0 -10 -5 -14 -16 -10 -8 3 -12 2 -9 -4 11 -18 35 -11 35
10 0 11 -2 20 -5 20 -3 0 -5 -7 -5 -16z"/>
<path d="M422 1418 c-2 -38 -2 -38 36 -36 36 1 36 1 5 5 -27 4 -32 9 -36 36
-4 31 -4 31 -5 -5z"/>
<path d="M525 1373 c31 -8 33 -14 25 -78 -5 -43 -3 -63 6 -72 7 -7 14 -13 17
-13 2 0 7 31 11 69 3 38 9 76 12 85 5 13 -2 16 -42 15 -27 -1 -40 -3 -29 -6z"/>
<path d="M2945 1179 c-253 -4 -827 -15 -1275 -23 -448 -9 -1007 -19 -1242 -22
l-428 -7 0 -359 c0 -246 3 -358 11 -358 12 0 1591 93 2619 155 410 24 773 47
808 51 l62 6 0 284 0 284 -47 -2 c-27 0 -255 -5 -508 -9z"/>
</g>
</svg>
